# xmcd
#
# Track frame offsets:
#	150
#	17610
#	34695
#	56000
#
# Disc length: 1219 seconds
#
# Revision: 1
# Processed by: cddbd v1.5PL3 Copyright (c) Steve Scherf et al.
# Submitted via: CDex 1.50Beta5
#
DISCID=2804c104
DTITLE=THE MAD CAPSULE MARKETS - FLY HIGH
DYEAR=2002
DGENRE=Rock
TTITLE0=FLY HIGH
TTITLE1=サソリ
TTITLE2=MIGHTY CROWN MAD DANCEHALL REMIX”GAGA LIFE.”
TTITLE3=NO FOOD,DRINK,OR SMOKING-KAWASAKI ELECTRO ACADEMY
EXTD=
EXTT0=
EXTT1=
EXTT2=
EXTT3=
PLAYORDER=
